<svg width="64" height="64" viewBox="0 0 64 64" fill="none" xmlns="http://www.w3.org/2000/svg">
<path fill-rule="evenodd" clip-rule="evenodd" d="M8.75 11C4.4698 11 1 14.4418 1 18.6875V36.625C1 39.9873 3.17611 42.8455 6.20751 43.8892C6.64293 48.4402 10.5065 52 15.2083 52C19.7634 52 23.5317 48.6588 24.1584 44.3125H39.8414C40.4684 48.6588 44.2367 52 48.7917 52C53.4936 52 57.357 48.4402 57.7925 43.8892C60.8238 42.8455 63 39.9873 63 36.625V27.1271C63 26.3791 62.89 25.6348 62.6732 24.9182L60.1206 16.4785C59.1371 13.2268 56.1201 11 52.6974 11H8.75ZM11.3333 42.8675V43.195C11.4198 45.2437 13.1216 46.8783 15.2083 46.8783C17.295 46.8783 18.9968 45.2437 19.0833 43.195V42.8675C18.9968 40.8188 17.295 39.1842 15.2083 39.1842C13.1216 39.1842 11.4198 40.8188 11.3333 42.8675ZM15.2083 34.0625C18.8152 34.0625 21.9287 36.1573 23.3799 39.1875H40.6201C42.0711 36.1573 45.1848 34.0625 48.7917 34.0625C52.2133 34.0625 55.1908 35.9477 56.7266 38.728C57.3957 38.265 57.8333 37.4957 57.8333 36.625V27.1271C57.8333 26.8778 57.7966 26.6297 57.7243 26.3909L57.7197 26.375H47.5C44.6464 26.375 42.3333 24.0805 42.3333 21.25V16.125H8.75C7.32328 16.125 6.16667 17.2723 6.16667 18.6875V36.625C6.16667 37.4957 6.60441 38.265 7.2735 38.728C8.80921 35.9477 11.7868 34.0625 15.2083 34.0625ZM47.5 16.125V18.6875C47.5 20.1027 48.6566 21.25 50.0833 21.25H56.1697L55.172 17.9512C54.8442 16.8673 53.8382 16.125 52.6974 16.125H47.5ZM44.9167 42.8675V43.195C45.0032 45.2437 46.7048 46.8783 48.7917 46.8783C50.8785 46.8783 52.5801 45.2437 52.6667 43.195V42.8675C52.5801 40.8188 50.8785 39.1842 48.7917 39.1842C46.7048 39.1842 45.0032 40.8188 44.9167 42.8675Z" fill="#0F0F0F"/>
</svg>
