<svg width="64" height="64" viewBox="0 0 64 64" fill="none" xmlns="http://www.w3.org/2000/svg">
<path d="M52.5 24.6667C53.0523 24.6667 53.5 24.219 53.5 23.6667V17.4667C53.5 16.9144 53.0523 16.4667 52.5 16.4667H10.5C9.94771 16.4667 9.5 16.9144 9.5 17.4667V23.6667C9.5 24.219 9.94772 24.6667 10.5 24.6667H52.5ZM53.5 31.1333C53.5 30.581 53.0523 30.1333 52.5 30.1333H10.5C9.94771 30.1333 9.5 30.581 9.5 31.1333V45.5333C9.5 46.0856 9.94772 46.5333 10.5 46.5333H52.5C53.0523 46.5333 53.5 46.0856 53.5 45.5333V31.1333ZM9.5 11H53.5C56.5376 11 59 13.4475 59 16.4667V46.5333C59 49.5525 56.5376 52 53.5 52H9.5C6.46243 52 4 49.5525 4 46.5333V16.4667C4 13.4475 6.46243 11 9.5 11ZM39.75 35.6H45.25C46.7688 35.6 48 36.8238 48 38.3333C48 39.8429 46.7688 41.0667 45.25 41.0667H39.75C38.2312 41.0667 37 39.8429 37 38.3333C37 36.8238 38.2312 35.6 39.75 35.6Z" fill="black"/>
</svg>
