<svg width="64" height="64" viewBox="0 0 64 64" fill="none" xmlns="http://www.w3.org/2000/svg">
<path fill-rule="evenodd" clip-rule="evenodd" d="M45.8866 14.7743C46.9192 13.742 48.5935 13.7418 49.6259 14.7743C50.6582 15.8067 50.658 17.4809 49.6259 18.5135L35.9394 32.2L49.6259 45.8866C50.6581 46.9191 50.6581 48.5932 49.6259 49.6258C48.5934 50.6582 46.9192 50.658 45.8866 49.6258L32.2001 35.9393L18.5136 49.6258C17.481 50.658 15.8068 50.6581 14.7743 49.6258C13.7419 48.5932 13.7421 46.9193 14.7743 45.8866L28.4608 32.2L14.7743 18.5135C13.742 17.4809 13.7418 15.8067 14.7743 14.7743C15.8068 13.7419 17.481 13.742 18.5136 14.7743L32.2001 28.4608L45.8866 14.7743Z" fill="black"/>
</svg>
