<?xml version="1.0" encoding="UTF-8"?>
<svg id="Layer_1" xmlns="http://www.w3.org/2000/svg" version="1.1" viewBox="0 0 118.3 152.3">
  <!-- Generator: Adobe Illustrator 29.8.2, SVG Export Plug-In . SVG Version: 2.1.1 Build 3)  -->
  <defs>
    <style>
      .st0 {
        fill-rule: evenodd;
      }

      .st0, .st1 {
        fill: #231f20;
      }
    </style>
  </defs>
  <g>
    <path class="st0" d="M2.3,91.1h4.5c.4,0,.8.3.8.7v32.1l16.9-1.5c.5,0,.8.1.8.7v3.6c0,.4-.4.7-.8.7H2.3c-.4,0-.8-.3-.8-.7h0v-34.9c0-.4.4-.7.8-.7"/>
    <path class="st0" d="M26.8,91.1h4.9c.4,0,.7.4.8.7l10.3,28.8,8.7-28.8c0-.4.4-.7.8-.7h4.4c.4,0,.9.4.8.7l-12.4,34.9c0,.4-.5.7-.9.7h-4.8c-.4,0-.8-.4-.9-.7l-12.4-34.9c-.1-.4.4-.7.8-.7"/>
    <path class="st0" d="M86,91.1h4.9c.4,0,.7.4.8.7l10.3,28.8,8.7-28.8c0-.4.4-.7.8-.7h4.4c.4,0,.9.4.8.7l-12.4,34.9c0,.4-.5.7-.9.7h-4.8c-.4,0-.8-.4-.9-.7l-12.4-34.9c0-.4.4-.7.8-.7"/>
    <path class="st0" d="M69.1,91.1h4.5c.4,0,.8.3.8.7v34.9c0,.4-.4.7-.8.7h-4.5c-.4,0-.8-.3-.8-.7v-34.9c0-.4.4-.7.8-.7"/>
  </g>
  <path class="st0" d="M114.2,44.5h-14.2c2.2-1.5,2.9-5.7,4.7-7.1.9-.6,2.2-.8,2.9-.8,1.6,0,3.1,1.9,3.8,3.2,1.2,2.2,1.6,3.5,2.8,4.7M110.5,48.3h0c0-1.1-.9-1.8-1.9-2.3,1.9,0,3.6,0,5.4-.2v.9c0,1.9,0,3.7-.2,5.6v1c-.8,0-1.4,0-2.2,0h-10.4c0-2.4,0-4.9.2-7.2,1.6,0,3.3,0,4.9,0-.8.5-1.4,1.4-1.7,2.1-.6,1.3-.4,2.6,1.7,3.5,2.7,1.1,4.2-1.1,4.2-3.3M98.9,83.6c0,.6.2.8.4.9h.3c1.4,0,1.8.3,1.8-.8v-13.2c0-5.3-.4-10.6-.3-16h3.4c-.2,0-.3,0-.4.9,0,2.5,0,5.9,0,8.5v5.8c0,4.2,0,9,0,13.2s0,2.6,0,3.4c0,.7.6.8.6.8h1.2q.5,0,.5-.8v-26.7c0-1.5,0-3.7,0-5.3,1.2,0,2.3,0,3.3,0v2.3c0,4.1-.4,8.2-.5,12.3v14.5c0,1,.2.9.5.9h1.2c.2,0,.8,0,.8-.7,0-1.6,0-3.5,0-5,0-2.2,0-4.3,0-6.5,0-1.8,0-3.5,0-5.3v-12.3h.4c.4,0,1.1,0,2,0v28.9c0,.8,0,.9.3,1h1.4c.4,0,.5-.2.5-.7v-10.2c0-3.6,0-7.1,0-10.7s0-9.5,0-14.3v-3c.7,0,1.2,0,1.7,0,.3,0,.5-.3.5-.5,0-.4,0-.5-.3-.6-1.2-.4-2.6-2.6-3.1-3.8-1.4-3.4-4.3-4.2-5.9-4.6,0-.6.2-2.3.3-4.2.4-.4.5-.8.5-1.5s-.6-1.8-1.5-2h0c0-1.4,0-3.2.3-4.1,0-.6,1.1-.4,1.9-.4s1.1-.8.2-1h-1.9c-.2-.9,0-1.2.2-2.5.3-1.9-1-2.1-1.4-.3,0,.6-.4,2.8-.5,2.8-.7,0-1.8,0-2.2.2-.6.3-.5.8,0,.9h1.5c.8,0,.6,0,.6.2v4c-1,.2-3.2,2.4-2,3.5.9.8.6,3,.6,4.3-4.4,1.4-5.6,5.6-7.6,8.7-.2.2-.4.3-.7.4-.5,0-.5.8.3.9h1.1v7.5h-1c-.2,0-.2.3-.2.4,0,.5.2.7.5.7h.7c0,1.1,0,2.2,0,3.2v11c0,1.6,0,3.1,0,4.7v5.8c0,1.4,0,3.1,0,4.5"/>
  <path class="st0" d="M63.2,34h0c1.7,1.2,2.1,4,1.2,5.6-.2.3-1.1,1.3-1.6,1.5-1.5.5-3.1.4-4.2-.2-1-.5-2.3-3.2-1.9-4.2.9-1.9,3.7-4.6,6.5-2.6M69.9,34.3h0c0,11,.2,22,.2,33.1v18.6c0,1.1-.3,1-.6,1.1h-1.7c-.2,0-.5-.2-.5-1.2-.2-8,0-16.1,0-24.2-3,.2-9.2.6-12.9.4,0,3.5,0,6.8,0,10.3,0,3-.3,6.2-.3,9.2v2.3c0,.7-1.6.6-1.7.6s-.6,0-.7-.6v-6.6c0-4,.2-8.1.2-12.1v-3.1h-1.2v-1.4c0,0,.2-.2.5-.2h.8c0-10.1,0-32.7,0-35-2.1,0-1.9-3.1-.9-3,1-.1,3.8-.9,4.8-1.2-1.2-.3-4,.3-5.1,0-.5-.2-.6-.7-.8-1.1-.7-2.1.2-1.5,1.3-1.7,2.2,0,4.6-.3,6.7-.1.7-1.4,1.9-3.4,1.6-4.8-.4-1.9-.9-5.6-1-6.5-.2-1.5.8-1.3,1.3-1.4.4,0,2.1,0,3.3-.2,1.2-.2,4.3-1.2,4.8,0,.3,0,0,1.9.4,2.2.2.3,0,1.8-.3,2-.5,0-2,.3-2.8,0-1.4,0-3.2-.1-4.5,0,0,1.6.6,3.2.5,4.4.6.6,3,3.3,3.3,4.3.3,0,1.6.1,3.3,0,.4-2,2.5-1.9,2.5.1,1,.1,1.7.2,2,.7,0,.3-.3,2.8-.5,4.2-.2,1.3-.8,1.1-1.6,1.2,0,0-.2,8.8-.2,9.5M54.4,60.4h4.7v-.2c0-2.9-.2-7.1,0-10,0,0,0-.4.5-.4h1.6c.4,0,.5,0,.5.4,0,5.1,0,7.6,0,10.1h5.7v-6.4c0-3.8.3-7.7.2-11.5,0-1.4,0-17.7,0-17.7-4.5-.3-8.6.2-13.6.4-.3,8.9,0,23.9.3,35.2"/>
  <path class="st0" d="M9,61.7h0c-.1-1.9,1.8-2.6,2.1-.2v11.1c0,.5.1,3.8.1,4.2s-.4.3-.4.3h-1.5c-.3,0-.4,0-.5-.4-.2-3.3-.3-11,.2-15.1M12.9,52.8h0c-1.7,0-4.5,0-5.7,0,0-1.9,1.6-10.3,2.1-10.1,1.4,1,3.2,7.8,3.6,10M2.5,44.9h0c0-.5,0-2.4.3-3.9.2-1.6.3-2,.8.4.4,1.7.8,3.5.8,3.5h-1.9M14.7,44.8h0c0-.8.2-1.5.4-2.2.3-1.3.9-2.2,1.1.9,0,0,0,.5.1,1.3h-1.6M16.6,54.1h0c0,10.1.3,20.2.4,30.4,0,.2.2.3.5.3s1.2.2,1.4,0c.2,0,.1-.5.1-.7,0-10,0-20.1-.2-30h.7c.5,0,.6-.9.5-1.1,0,0,0-.2-.2-.2h-.9c-.2-4.3,0-8-.8-11.3-.4-1.7-.7-3-1.2-4.7-.5-1.6-1.4-2.1-1.8-1.6-.7.7-1.2,5.8-1.6,6.4-.5.9-.6,4.2-.7,4.8-.2-.5-1.4-4.1-2.3-5.8.2-1,0-2.5.2-3.5.1-1.2.2-2.7-1-3,0-1.9.2-2.9.1-3.2.1-.1.8,0,1.3,0,.6.2.7-.9,0-1.1-.2,0-1.1-.1-1.2-.2.1-1,0-1.8-.1-2.8,0-1.6-.9-1.5-1.1,0-.1.9.1,1.7.2,2.7-.5,0-1.6.2-2,.2-.6.2-.5.9,0,.9h1.8c0,.2,0,1.7-.1,4-.4.5-.8,1.4-.9,2-.4,1.6-.2,2.6-.2,4.3-.6,2.1-1.3,6.2-1.5,7,0-2.1-1-6-1.1-6.4-.6-2.6-.9-3.6-1.1-4.2-.7-1.9-1.6-.5-2,1.4-.5,2.3-.8,4.2-.8,6.4-.5,0-.8,0-.9.2-.1.3,0,.9.3.9h.7c-.4,9.4,0,19.1-.1,28.4v11.9c0,.6,0,.5.4.5s1.5,0,1.8,0c.2,0,.4,0,.4-.6v-3.9c0-5.6-.4-11.1-.4-16.7v-7.5c0-1.3,0-2.7,0-4.2h2.4c0,5.9-.2,11.9-.3,17.8,0,4.3.2,10.4.3,14.7,0,.4,0,.4.5.5h1.3c.2,0,.4,0,.4-.3,0-.9,0-3.7,0-4.3,0-4.3-.6-8.5-.5-12.8v-5.9c0-2.6,0-7.2,0-9.7h5.7v13c0,3.9.1,7.8.1,11.7s.1,2.2.2,3.8q0,.2.3.2h1.3q.2,0,.2-.2c0-2.5-.3-5.4-.3-7.8v-20.6h2.1-.2ZM16.7,52.8h-2.1c0-.5-.1-3.8,0-6.7h1.9c.1,2.3.3,4.5.2,6.8M5.3,52.9h-2.3c-.2-1.8,0-4.8,0-6.7h1.6c.4,2.8.9,6.2.8,6.7"/>
  <path class="st0" d="M27.3,23.1h0c.3-.3.6-1.3.7-1.4,1.2-2.9,3.7-3.8,5.1-4.4,0-1.4,0-3.4.2-4.4,0-1.4-.7-1.7,0-2.6.2-.4,1.2-1,1.3-1,0-1.4,0-3.3,0-4.1,0-.5-1-.4-1.6-.4-1,0-.9-1,0-1.1h1.5s0,0,0,0h0c.2-.7,0-1,0-2.1,0-1.8,1.1-1.8,1.3-.2,0,.6,0,2.5.2,2.5.6,0,1.5,0,1.9.3.5.3.4.9,0,1h-1.2c-.7,0-.6,0-.6.2,0,.8,0,2.7-.2,4.1h0c1.4.4,2.4,2.2,1.4,3.4-.6.6-.4.3-.4,1.3v3.4c1.6.8,4.2,1.5,6.3,5.2v-5.6c.2-2.1,1.6-1.7,1.8,0,.4,2.4.5,5,.6,7.4.3,0,.8,0,1.2.2.3.1.2.8,0,.9-.3.4-.9.7-1.2.8v11.6h.9c.5,0,.5.4.4.7,0,.3-.2.4-.5.4h-.8v44.9c0,.4.2,1-.3,1h-2.5c-.3,0-.4,0-.4-.3-.3-6.3,0-10,0-14.8v-7.7c-5,0-10.3,0-15.3,0,0,8.2-.4,16.2-.8,24.4,0,.3,0,.4-.4.4s-1.4,0-1.4,0c-.1,0-.5,0-.5-.5.2-6.7.5-13.5.5-20.2s.1-2.7.1-4.2h-1c-.2,0-.6,0-.6-.3v-.7c0-.5,1.1-.4,1.6-.3.2-7,.3-14.2,0-21.4h-.6c-.2,0-.7,0-.8-.8,0,0,0-.5.2-.5h1.2v-11.7c-.2-3.2-.5-5.8.2-8.1.4-1.3,1.4-.3,1.7.9.2.9.6,2.8.9,4.2M36.7,47.3h0c0-3,2.5-4.3,2.7-.3,0,4.6-.2,8.5,0,13.7h3.1c0-4.1.3-9.2.4-14,0-2.6.2-5,.2-7.6-5.1.2-10.5,0-15.7.3,0,7.1-.2,14.3-.3,21.4h3v-14.7c.2-2,.8-2.1,1.5-2,.7,0,1.2.6,1.1,2.4,0,3.2.2,9.6,0,12.9v1.5h3.6v-1.4c0-1.6.3-10,.4-12M32.9,69h0c0-1.9-.7-2.8-1.4-2.8s-1.5.5-1.7,2.4c0,7.9-.3,0-.3,11.3v3.8c0,.5.2.6.4.6h2.3c.4,0,.5,0,.5-.5v-1.3c0-3.4.2-10.2.2-13.6M39.2,69.3h0c0-2-.8-3.2-1.7-3-.6,0-1.3.9-1.5,2.7,0,3.9-.2,11.1-.2,14.7,0,.8.5.7.8.7h2.4q.3,0,.3-.5v-1.5c0-1.6,0-11.1,0-13.1M37.3,32.2h0c0-1.3.3-1.8,1-1.8s1.2.9,1.2,2.1c0,2.2-.2,3.7-.2,5.2h3.7c0-4.4.2-7.5.2-7.8v-3.7h-1.3c-5.7.5-10.4.5-15.4-.3.1,1.9.6,6.5.7,12h3.2c0-1.8.5-3.8.4-5.6,0-1.4.7-2.3,1.3-2.4.7,0,1,.8,1,2s0,4.2-.2,5.9h4.2c0-1.7,0-3.8,0-5.5M30.2,24.4h9.3c0-1.3-1-3.1-2-4-1.5-1.3-3.6-1.5-4.9-.7-1,.6-1.6,1.3-2,2.5-.1.4-.4,1.8-.5,2.2"/>
  <path class="st0" d="M83.5,53.3h0c-.2,1.6,0,5.1,0,6.7s-.3.4-.5.4h-1.3c-.2,0-.7,0-.6-.4-.3-2.1-.2-4.8,0-6.9.5-2.8,2.5-1.9,2.4.2M85.7,53.1h0c0-1.9,2-2.7,2.4-.2,0,4.3,0-1,0,5.2v2c0,.4-.4.4-.5.4h-1.6c-.3-.2-.2-.3-.2-1.2v-6.3M90.8,39.2h0c-1,0-1.8.2-2.5.2s-1.1,0-1.5-.8c-2.3-4.1-3.7-1.6-5,0-.2.2-.6.4-1.2.4h-2.7c0,3.7,0,9.3,0,13.1,0,2.8.2,5.6.2,8.5s0,5.9.3,9c3,0,9.1,0,12.2,0v-30.1M95,37.6h0c-.7-.2-1.3-.9-1.7-1.5,0-1.3.2-3.1.2-3.7.2-1.9-1.4-1.8-1.8-.4l-.3,1.5c-2.6-4.8-3.2-8.7-3-14.5.4-.6.6-1.4.5-2.1-.3-2.1-2-1.9-3-2.1,0-.2.2-5,.4-5.2,0-.2,1.1-.2,1.6-.3,1.2-.2,1-.7-.2-1.1-.3,0-.9,0-1.3.1,0-.1,0-.6,0-1.6,0-1.4-1-2.2-1.4,0-.2,1.2-.2,1.4,0,1.7-1,.1-1.2,0-1.9,0-1.2,0-.7,1,.4,1.1.5,0,1.3.1,1.5,0,.2.2-.2,4.9,0,5.4-1.4.5-1.8,2.7-1.8,4.2-.2,6.1-1.9,9.7-5.3,15.2l-.2-2.2c0-1.9-1.6-1.8-1.6-.4v5c-.3.5-.9,1-1.4,1.3-.2,0-.3.2-.3.4,0,.4,0,.5,0,.6,0,0,0,0,.2,0h1.4v16.7c0,4.1,0,8.1,0,12.2v18.3c0,.7.3.8.9.9.6,0,1.3,0,1.6,0,.3,0,.6,0,.6-.7v-10.2c0-1.8,0-3.6-.2-5.3h12.1v13c0,.8.3.9.4,1h1.7c.2,0,.6.2.7-.7v-1.7c0-1.7-.2-8.5-.2-11.5h.9c.3,0,.6,0,.6,0,0-.2,0-.8,0-1,0-.2-.3-.3-.6-.3h-1.1c0-3.8-.2-7.6-.3-11.3v-7.5c0-3.5.3-8.1.3-11.6.6,0,1.1-.2,1.4-.3.5,0,.8-.9.3-1M85.6,21.5c.5,6.7,2.4,12,5.3,16h-1.3c-.3,0-.3,0-.4-.4-1.2-3.2-6.4-3.8-8.4.2-.7,0-.7,0-2.3,0,2.1-2.5,5.3-10.1,5.9-15.4,0-.9,1.1-1.1,1.1-.4"/>
  <g>
    <path class="st1" d="M1.8,136v-1.5h13.1v1.5h-5.7v16.3h-1.7v-16.3H1.8Z"/>
    <path class="st1" d="M20.8,152.4v-17.8h5.9c1.2,0,2.3.2,3.1.7.9.5,1.5,1.1,1.9,1.9s.7,1.7.7,2.8-.2,2-.7,2.8c-.4.8-1.1,1.4-2,1.9s-1.9.7-3.1.7h-5v-1.5h4.9c.9,0,1.7-.2,2.3-.5.6-.3,1.1-.7,1.4-1.3.3-.6.5-1.2.5-2s-.2-1.4-.5-2-.8-1-1.4-1.3-1.4-.5-2.3-.5h-4.2v16.3h-1.7l.2-.2ZM31.2,152.4l-4.3-8.1h1.9l4.4,8.1h-2Z"/>
    <path class="st1" d="M37,152.4l6.5-17.8h2l6.6,17.8h-1.8l-4.2-11.7c-.2-.7-.5-1.4-.8-2.3s-.6-1.9-1-3.1h.4c-.4,1.2-.7,2.3-1,3.1-.3.9-.5,1.6-.8,2.2l-4.2,11.7h-1.8,0ZM40.1,147.1v-1.5h9v1.5h-9Z"/>
    <path class="st1" d="M57.4,152.4v-17.8h1.9l8.1,12.2c.2.3.5.7.7,1.1.3.4.6.9.9,1.4s.6,1,.9,1.6h-.3v-16.4h1.7v17.8h-2l-7.6-11.3c-.3-.4-.6-.9-.9-1.3-.3-.5-.6-1-1-1.6s-.8-1.3-1.2-2.1h.3v16.3h-1.7.2Z"/>
    <path class="st1" d="M83.6,152.7c-1.2,0-2.3-.2-3.2-.6s-1.6-1-2.1-1.7-.8-1.6-.9-2.6h1.7c0,.7.3,1.4.7,1.9.4.5.9.9,1.6,1.2s1.4.4,2.2.4,1.7,0,2.4-.4c.7-.3,1.2-.7,1.6-1.2s.6-1.1.6-1.8,0-1.1-.4-1.5-.7-.7-1.3-1c-.6-.3-1.2-.5-2-.8l-2.1-.6c-1.5-.4-2.6-1-3.4-1.8-.8-.7-1.1-1.7-1.1-2.8s.3-1.8.8-2.5,1.2-1.3,2.1-1.7c.9-.4,1.9-.6,3-.6s2.1.2,3,.6,1.5,1,2,1.7.8,1.6.8,2.5h-1.7c0-1-.5-1.8-1.3-2.4s-1.8-.9-2.9-.9-1.5,0-2.2.4c-.6.3-1.1.7-1.5,1.2s-.5,1.1-.5,1.7.2,1.1.5,1.5.8.7,1.3,1,1.1.5,1.8.7l1.9.5c.6.2,1.2.4,1.8.7s1.1.6,1.6,1,.8.8,1.1,1.3c.3.5.4,1.1.4,1.8s-.3,1.8-.8,2.6-1.2,1.4-2.1,1.8-2,.7-3.3.7v-.3Z"/>
    <path class="st1" d="M97.6,134.5v17.8h-1.7v-17.8h1.7Z"/>
    <path class="st1" d="M103.5,136v-1.5h13.1v1.5h-5.7v16.3h-1.7v-16.3h-5.7Z"/>
  </g>
</svg>