<svg width="64" height="64" viewBox="0 0 64 64" fill="none" xmlns="http://www.w3.org/2000/svg">
<path d="M35.7617 6.78403C37.7157 5.80718 40.0018 5.73989 42.0098 6.60044L53.8994 11.6961C56.6298 12.8667 58.4003 15.5525 58.4004 18.5233V48.993C58.4001 54.3246 52.9477 57.9212 48.0469 55.8211L39.9531 52.3524C39.356 52.0966 38.6767 52.1159 38.0957 52.4061L27.6387 57.6346C25.6847 58.6115 23.3985 58.6796 21.3906 57.8192L9.50098 52.7235C6.77056 51.5532 5.00031 48.8668 5 45.8963V15.4256C5.00018 10.0937 10.4526 6.49826 15.3535 8.59849L23.4473 12.0672C24.0442 12.3229 24.7237 12.3028 25.3047 12.0125L35.7617 6.78403ZM13.2969 13.3954C11.8395 12.7713 10.2189 13.84 10.2188 15.4256V45.8963C10.219 46.7797 10.7456 47.5786 11.5576 47.9266L21.8633 52.3426V17.0458C21.7045 16.99 21.5461 16.9307 21.3906 16.8641L13.2969 13.3954ZM27.6387 16.6795C27.4565 16.7706 27.2697 16.8521 27.082 16.9276V52.078L35.7617 47.7391C35.944 47.6479 36.1306 47.5665 36.3184 47.4911V12.3397L27.6387 16.6795ZM41.5371 47.3729C41.6959 47.4286 41.8542 47.4888 42.0098 47.5555L50.1035 51.0243C51.5606 51.6481 53.1813 50.5784 53.1816 48.993V18.5233C53.1815 17.6397 52.6548 16.8411 51.8428 16.493L41.5371 12.076V47.3729ZM12.4756 13.0135C12.3764 13.0115 12.2779 13.0161 12.1807 13.0262L12.3281 13.0155C12.3771 13.0134 12.4262 13.0125 12.4756 13.0135ZM8.81641 9.16392V9.16489C8.94097 9.09288 9.06761 9.02442 9.19629 8.95981V8.95884C9.06762 9.02343 8.94096 9.09192 8.81641 9.16392Z" fill="black"/>
</svg>
