<svg width="64" height="64" viewBox="0 0 64 64" fill="none" xmlns="http://www.w3.org/2000/svg">
<path fill-rule="evenodd" clip-rule="evenodd" d="M32.1504 7C46.0404 7 57.3008 18.2604 57.3008 32.1504C57.3008 46.0404 46.0404 57.3008 32.1504 57.3008C18.2604 57.3008 7 46.0404 7 32.1504C7 18.2604 18.2604 7 32.1504 7ZM32.1504 12.3008C21.1875 12.3008 12.3008 21.1875 12.3008 32.1504C12.3008 43.1133 21.1875 52 32.1504 52C43.1133 52 52 43.1133 52 32.1504C52 21.1875 43.1133 12.3008 32.1504 12.3008Z" fill="black"/>
<path d="M41 29.3496C42.4636 29.3496 43.6504 30.5364 43.6504 32C43.6504 33.4636 42.4636 34.6504 41 34.6504H23C21.5364 34.6504 20.3496 33.4636 20.3496 32C20.3496 30.5364 21.5364 29.3496 23 29.3496H41Z" fill="black"/>
</svg>
