<svg width="64" height="64" viewBox="0 0 64 64" fill="none" xmlns="http://www.w3.org/2000/svg">
<path fill-rule="evenodd" clip-rule="evenodd" d="M32.1504 7C46.0404 7 57.3008 18.2604 57.3008 32.1504C57.3008 46.0404 46.0404 57.3008 32.1504 57.3008C18.2604 57.3008 7 46.0404 7 32.1504C7 18.2604 18.2604 7 32.1504 7ZM32.1504 12.3008C21.1875 12.3008 12.3008 21.1875 12.3008 32.1504C12.3008 43.1133 21.1875 52 32.1504 52C43.1133 52 52 43.1133 52 32.1504C52 21.1875 43.1133 12.3008 32.1504 12.3008Z" fill="black"/>
<path d="M31.9951 20.3545C33.4586 20.3546 34.6445 21.5414 34.6445 23.0049V29.3496H41C42.4636 29.3496 43.6504 30.5364 43.6504 32C43.6503 33.4635 42.4635 34.6494 41 34.6494H34.6445V41.0049C34.6445 42.4684 33.4586 43.6552 31.9951 43.6553C30.5316 43.6553 29.3447 42.4684 29.3447 41.0049V34.6494H23C21.5365 34.6494 20.3497 33.4635 20.3496 32C20.3496 30.5364 21.5364 29.3496 23 29.3496H29.3447V23.0049C29.3447 21.5413 30.5316 20.3545 31.9951 20.3545Z" fill="black"/>
</svg>
