<svg width="64" height="64" viewBox="0 0 64 64" fill="none" xmlns="http://www.w3.org/2000/svg">
<path fill-rule="evenodd" clip-rule="evenodd" d="M31.9688 15.126C37.2278 15.126 41.4912 19.3893 41.4912 24.6484C41.4911 29.9074 37.2278 34.1708 31.9688 34.1709C26.7096 34.1708 22.4464 29.9074 22.4463 24.6484C22.4463 19.3893 26.7096 15.1261 31.9688 15.126ZM31.9688 20.2617C29.5463 20.2618 27.583 22.226 27.583 24.6484C27.5831 27.0709 29.5463 29.0341 31.9688 29.0342C34.3913 29.0341 36.3554 27.0709 36.3555 24.6484C36.3555 22.226 34.3913 20.2618 31.9688 20.2617Z" fill="black"/>
<path fill-rule="evenodd" clip-rule="evenodd" d="M31.75 6C45.971 6.00006 57.4997 17.5292 57.5 31.75C57.4997 45.9707 45.971 57.4999 31.75 57.5C17.5288 57.5 6.00026 45.9708 6 31.75C6.00026 17.5292 17.5288 6 31.75 6ZM31.8994 41.2734C26.5667 41.2735 21.8449 43.8857 18.9424 47.9014C22.4598 50.6942 26.9095 52.3623 31.75 52.3623C36.6768 52.3623 41.198 50.6332 44.7441 47.75C41.8329 43.8205 37.1643 41.2735 31.8994 41.2734ZM31.75 11.1377C20.3656 11.1377 11.137 20.3658 11.1367 31.75C11.1368 36.4222 12.6917 40.7305 15.3115 44.1875C19.1774 39.285 25.1706 36.1368 31.8994 36.1367C38.5393 36.1368 44.4621 39.2033 48.332 43.9951C50.8646 40.5714 52.3632 36.336 52.3633 31.75C52.363 20.5438 43.4207 11.4259 32.2822 11.1436L31.75 11.1377Z" fill="black"/>
</svg>
