<svg width="64" height="64" viewBox="0 0 64 64" fill="none" xmlns="http://www.w3.org/2000/svg">
<path fill-rule="evenodd" clip-rule="evenodd" d="M27.9083 22.6123C29.7195 21.8682 31.7132 21.6734 33.6358 22.0527C35.5582 22.4322 37.3246 23.3689 38.711 24.7441C40.0975 26.1196 41.0422 27.873 41.4249 29.7812C41.8074 31.6895 41.6109 33.6674 40.8604 35.4648C40.1099 37.2622 38.8391 38.7983 37.209 39.8789C35.5788 40.9595 33.6616 41.5361 31.7012 41.5361C29.0725 41.5361 26.5508 40.5006 24.6915 38.6562C22.8321 36.8117 21.7872 34.3095 21.7872 31.7002C21.7872 29.7544 22.3695 27.852 23.459 26.2344C24.5486 24.6171 26.0971 23.3565 27.9083 22.6123ZM31.7012 27.082C30.4658 27.0821 29.2814 27.5695 28.4083 28.4355C27.5351 29.3018 27.044 30.4759 27.044 31.7002C27.044 32.6132 27.3176 33.5062 27.8292 34.2656C28.3407 35.0248 29.0681 35.6171 29.919 35.9668C30.77 36.3163 31.7069 36.4078 32.6104 36.2295C33.5139 36.0511 34.3441 35.6107 34.9952 34.9648C35.6461 34.3189 36.0901 33.4959 36.2696 32.6006C36.449 31.7053 36.3561 30.7771 36.004 29.9336C35.6517 29.09 35.0549 28.368 34.2891 27.8604C33.5234 27.3529 32.6224 27.0821 31.7012 27.082Z" fill="black"/>
<path fill-rule="evenodd" clip-rule="evenodd" d="M35.3438 5C36.6844 5.0001 37.9716 5.5289 38.92 6.46973C39.8682 7.41064 40.4014 8.68738 40.4014 10.0186V12.9453L40.4083 13.0898C40.4345 13.4251 40.5371 13.7506 40.709 14.042C40.9057 14.3751 41.1863 14.6523 41.5235 14.8457C41.8607 15.039 42.2432 15.1427 42.6329 15.1455C42.9739 15.1478 43.3107 15.0728 43.6172 14.9277L43.7471 14.8613L46.1973 13.458C46.7726 13.129 47.4082 12.9157 48.0665 12.8301C48.7247 12.7446 49.394 12.7891 50.0352 12.96C50.6761 13.1309 51.2774 13.425 51.8038 13.8262C52.3303 14.2277 52.7728 14.7288 53.1045 15.2998L56.7227 21.5098C57.0547 22.0806 57.2709 22.7117 57.3575 23.3652C57.444 24.0187 57.3997 24.6828 57.2276 25.3193C57.0554 25.956 56.7581 26.5535 56.3536 27.0762C55.949 27.5987 55.4443 28.0371 54.8692 28.3662L52.4415 29.7607C52.1034 29.9544 51.8223 30.2336 51.627 30.5684C51.4318 30.9031 51.3281 31.2824 51.3272 31.6689V31.6729C51.3193 32.0692 51.4185 32.4608 51.6143 32.8066C51.8101 33.1522 52.0958 33.4399 52.4415 33.6396L54.8692 35.0342C55.4443 35.3633 55.949 35.8017 56.3536 36.3242C56.7581 36.8469 57.0554 37.4444 57.2276 38.0811C57.3997 38.7176 57.444 39.3817 57.3575 40.0352C57.2709 40.6887 57.0547 41.3188 56.7227 41.8896L53.1094 48.1006C52.4387 49.253 51.3339 50.0941 50.0391 50.4385C48.7442 50.7827 47.3635 50.6025 46.2022 49.9375L43.752 48.5352C43.4128 48.3483 43.0298 48.2511 42.6417 48.2539C42.2523 48.2569 41.8703 48.3608 41.5333 48.5537C41.1962 48.7468 40.9148 49.023 40.7178 49.3555C40.5209 49.688 40.4142 50.0658 40.4083 50.4512V53.3818C40.4083 54.7131 39.8752 55.9897 38.9268 56.9307C37.9784 57.8715 36.6922 58.4003 35.3516 58.4004H28.0655C26.725 58.4003 25.4387 57.8714 24.4903 56.9307C23.5419 55.9897 23.0088 54.7131 23.0088 53.3818V50.4531L23.004 50.3096C22.9814 49.9764 22.882 49.6517 22.7129 49.3613C22.5198 49.0296 22.2418 48.7537 21.9073 48.5615L21.9053 48.5605C21.566 48.3607 21.179 48.2534 20.7842 48.249C20.3899 48.2448 20.0007 48.3423 19.6573 48.5342L19.6583 48.5352L17.2051 49.9414C16.6299 50.2711 15.9945 50.4862 15.336 50.5723C14.6772 50.6583 14.007 50.6142 13.3653 50.4434C12.7235 50.2724 12.1218 49.977 11.5948 49.5752C11.0677 49.1733 10.6248 48.6723 10.293 48.1006L6.67779 41.8896C6.34578 41.3188 6.12958 40.6887 6.04303 40.0352C5.95651 39.3817 6.0008 38.7176 6.17291 38.0811C6.34512 37.4444 6.64233 36.8469 7.04693 36.3242C7.4515 35.8017 7.95619 35.3633 8.53131 35.0342L10.959 33.6396L10.96 33.6387C11.2986 33.4462 11.5801 33.1686 11.7754 32.834C11.9708 32.4991 12.0739 32.1181 12.0733 31.7314V31.7275C12.0806 31.3311 11.9809 30.9398 11.7852 30.5938C11.5895 30.2477 11.3045 29.9586 10.959 29.7578L8.53131 28.3662C7.37109 27.7006 6.52363 26.6046 6.17682 25.3193C5.83009 24.0341 6.01242 22.6648 6.68268 21.5127L10.296 15.2949L10.4258 15.084C10.7402 14.6003 11.1366 14.1733 11.5977 13.8223C12.1247 13.4211 12.7268 13.1265 13.3682 12.9561C14.0095 12.7858 14.6788 12.742 15.337 12.8281C15.9953 12.9143 16.6311 13.1293 17.2061 13.459L19.8116 14.959C20.0974 15.1201 20.4221 15.205 20.751 15.2051C21.0797 15.205 21.4029 15.1198 21.6885 14.959L22.0635 14.7451C22.3488 14.5821 22.5855 14.3468 22.7501 14.0645C22.9146 13.7821 23.0019 13.4617 23.002 13.1357V10.0186C23.002 8.68718 23.535 7.41068 24.4835 6.46973C25.4319 5.52894 26.7181 5.00001 28.0587 5H35.3438ZM28.2588 13.1367C28.2554 14.3795 27.9227 15.5996 27.295 16.6748C26.667 17.7501 25.7653 18.6436 24.6807 19.2646L24.3057 19.4766C23.2227 20.0939 21.9951 20.4189 20.7462 20.4189C19.5753 20.4189 18.4235 20.1332 17.3917 19.5889L17.1866 19.4766L14.7501 18.082L11.3321 23.9463L13.587 25.2393C14.7227 25.8991 15.6666 26.8425 16.3213 27.9756C16.9761 29.1087 17.3204 30.3929 17.3204 31.6992C17.3203 33.0053 16.9759 34.2889 16.3213 35.4219C15.6666 36.5549 14.7236 37.4984 13.5879 38.1582L13.587 38.1592L11.3331 39.4531L14.7569 45.3184L17.0313 44.0156C18.1701 43.3687 19.4604 43.0288 20.7725 43.0312C22.0846 43.0338 23.3735 43.378 24.5098 44.0293C25.6461 44.6806 26.5913 45.6162 27.2491 46.7432C27.8658 47.7998 28.2103 48.9901 28.254 50.208L28.2588 50.4521V53.1816H35.1446V50.4521C35.1498 49.1502 35.4991 47.8723 36.1573 46.7461C36.8155 45.6199 37.7597 44.6842 38.8956 44.0332C40.0314 43.3823 41.3195 43.0374 42.6309 43.0342C43.9423 43.0311 45.2322 43.3693 46.3712 44.0146L46.3721 44.0156L48.6573 45.3184L52.0694 39.4531L49.8155 38.1592L49.8145 38.1582C48.6789 37.4984 47.7368 36.5548 47.0821 35.4219C46.4273 34.2888 46.0831 33.0055 46.0831 31.6992C46.0831 30.3928 46.4272 29.1088 47.0821 27.9756C47.7369 26.8426 48.6789 25.899 49.8145 25.2393L52.0684 23.9463L48.6446 18.0811L46.3721 19.3848L46.3712 19.3857C45.2322 20.0311 43.9423 20.3693 42.6309 20.3662C41.3195 20.363 40.0314 20.0181 38.8956 19.3672C37.7597 18.7162 36.8155 17.7805 36.1573 16.6543C35.4991 15.5281 35.1498 14.2502 35.1446 12.9482V10.2188H28.2588V13.1367Z" fill="black"/>
</svg>
